<?xml version="1.0" encoding="UTF-8" standalone="no"?>
<svg
   version="1.1"
   width="1080"
   height="1080"
   id="svg27"
   sodipodi:docname="taskori.svg"
   inkscape:export-filename="taskori.webp"
   inkscape:export-xdpi="96"
   inkscape:export-ydpi="96"
   inkscape:version="1.3.2 (091e20e, 2023-11-25, custom)"
   xmlns:inkscape="http://www.inkscape.org/namespaces/inkscape"
   xmlns:sodipodi="http://sodipodi.sourceforge.net/DTD/sodipodi-0.dtd"
   xmlns="http://www.w3.org/2000/svg"
   xmlns:svg="http://www.w3.org/2000/svg">
  <defs
     id="defs27" />
  <sodipodi:namedview
     id="namedview27"
     pagecolor="#ffffff"
     bordercolor="#999999"
     borderopacity="1"
     inkscape:showpageshadow="0"
     inkscape:pageopacity="0"
     inkscape:pagecheckerboard="0"
     inkscape:deskcolor="#d1d1d1"
     inkscape:zoom="0.5"
     inkscape:cx="281"
     inkscape:cy="643"
     inkscape:window-width="1920"
     inkscape:window-height="1009"
     inkscape:window-x="1912"
     inkscape:window-y="-8"
     inkscape:window-maximized="1"
     inkscape:current-layer="g1" />
  <g
     id="g1"
     transform="translate(-446.25618,1338.7709)">
    <path
       d="m 446.2568,-1338.7704 c 356.4,0 712.8,0 1080,0 0,356.4 0,712.8 0,1080 -356.4,0 -712.8,0 -1080,0 0,-356.4 0,-712.8 0,-1080 z"
       fill="#fefefe"
       id="path1"
       style="stroke-width:2.10938" />
    <g
       id="g12"
       transform="matrix(1.5366431,0,0,1.5366431,-534.22277,364.89769)">
      <path
         d="m 876.5693,-931.66103 c 72.39375,0 144.7875,0 219.375,0 0,53.39734 0,53.39734 -10.9424,66.84083 -14.4178,11.85462 -26.5107,14.53431 -44.956,13.84277 -6.6129,-0.17402 -13.2258,-0.34805 -20.0391,-0.52735 0,27.14766 0,54.29532 0,82.26563 -19.0176,4.7544 -19.0176,4.7544 -26.38367,4.77904 -1.60156,0.006 -3.20312,0.0105 -4.85321,0.0169 -1.61243,-0.0169 -3.22487,-0.0327 -4.88617,-0.0494 -1.62875,0.0169 -3.2575,0.0327 -4.9356,0.0494 -1.59613,-0.006 -3.19225,-0.0106 -4.83674,-0.0169 -1.417,-0.004 -2.83399,-0.0105 -4.29393,-0.0148 -4.65443,-0.54553 -4.65443,-0.54553 -17.31068,-4.76428 0,-27.14766 0,-54.29531 0,-82.26563 -13.72538,0.41376 -13.72538,0.41376 -27.44608,0.95015 -14.2258,0.21398 -24.46232,-2.77205 -35.83517,-11.49702 -19.46971,-21.21919 -12.65625,-37.33916 -12.65625,-69.60938 z"
         fill="#193343"
         id="path2"
         style="stroke-width:2.10938" />
      <path
         d="m 1119.1227,-687.69862 c 11.4583,5.89431 21.2526,15.89308 25.3372,28.14697 2.0002,15.82978 -0.7837,27.38863 -10.5469,40.07812 -8.6833,8.07756 -16.8938,10.05248 -28.4353,10.74463 -13.8985,-0.51715 -23.5512,-6.79195 -33.9066,-15.60608 -8.0384,-9.4288 -8.1661,-19.87029 -7.9431,-31.72302 0.9533,-7.90541 3.9095,-12.33282 9.1132,-18.25928 1.3051,-1.52271 2.6103,-3.04541 3.955,-4.61425 12.3791,-10.55858 26.7662,-13.93591 42.4265,-8.76709 z"
         fill="#F5F5F5"
         id="path3"
         style="fill:#193343;fill-opacity:1;stroke-width:2.10938" />
      <path
         d="m 906.10055,-902.12978 c 53.59922,0 107.19845,0 162.42185,0 0,16.875 0,16.875 -2.4462,22.10518 -5.3186,4.39435 -8.5255,4.10993 -15.3681,3.89945 -2.2732,-0.008 -4.5464,-0.0169 -6.8884,-0.0247 -4.7524,-0.0924 -9.5043,-0.21808 -14.2548,-0.37903 -13.4844,0.0169 -20.745,1.05408 -30.76721,10.48918 -1.41904,1.57642 -2.83807,3.15282 -4.30011,4.777 -4.02203,3.4298 -4.02203,3.4298 -8.23666,3.35102 -5.09534,-2.45013 -8.47574,-5.58677 -12.61093,-9.43813 -11.72502,-9.40258 -22.11337,-9.34801 -36.69983,-9.07196 -4.49892,0.002 -8.99789,-0.0105 -13.4967,-0.0411 -1.96695,0.0276 -3.93389,0.0555 -5.96043,0.084 -5.06436,-0.43835 -5.06436,-0.43835 -11.39248,-4.6571 0,-6.96093 0,-13.92187 0,-21.09375 z"
         fill="#f9fbfc"
         id="path4"
         style="stroke-width:2.10938" />
      <path
         d="m 994.6943,-718.61415 c 0.69609,18.79453 1.39219,37.58906 2.10937,56.95312 3.30643,-4.17656 6.61293,-8.35312 10.01953,-12.65625 6.3002,-7.39017 10.7043,-12.07556 20.3604,-14.33716 6.2252,0.0888 12.0222,0.52863 18.1357,1.68091 -1.971,2.68545 -3.9502,5.36497 -5.9326,8.042 -1.1013,1.4928 -2.2025,2.98559 -3.3371,4.52362 -3.0544,3.88669 -5.9832,7.39677 -9.7147,10.63751 -1.3922,0 -2.7844,0 -4.2187,0 -1.7996,3.59153 -1.7996,3.59153 -2.1094,8.4375 3.0943,6.09618 3.0943,6.09618 7.6465,12.26074 1.5499,2.22695 3.0998,4.45391 4.6966,6.74836 3.6044,5.01331 7.2246,10.01379 10.86,15.00457 4.2188,6.06445 4.2188,6.06445 4.2188,10.2832 -7.2859,1.05549 -13.8369,1.38985 -21.0938,0 -6.1053,-4.7887 -10.2228,-10.63728 -14.7656,-16.875 -2.0173,-2.15548 -4.0765,-4.27342 -6.1963,-6.32812 -1.4357,-1.39219 -2.8714,-2.78437 -4.3506,-4.21875 -7.48224,7.80758 -7.41928,14.96085 -8.43748,25.3125 -2.10937,2.10937 -2.10937,2.10937 -5.93261,2.38952 -1.52271,-0.006 -3.04541,-0.0105 -4.61426,-0.0169 -1.52271,0.006 -3.04541,0.0105 -4.61426,0.0169 -3.82324,-0.28015 -3.82324,-0.28015 -5.93262,-2.38952 -0.19658,-3.23753 -0.24776,-6.48405 -0.23946,-9.72753 1.6e-4,-2.06917 3.2e-4,-4.13834 4.8e-4,-6.27022 0.0109,-2.24999 0.0218,-4.49995 0.033,-6.81811 0.003,-2.29119 0.006,-4.58237 0.009,-6.94297 0.0118,-7.35096 0.0383,-14.70177 0.0651,-22.05269 0.0106,-4.96994 0.0202,-9.93988 0.0288,-14.90983 0.0233,-12.21271 0.0587,-24.42536 0.10299,-36.63803 4.21875,-2.10937 4.21875,-2.10937 23.20313,-2.10937 z"
         fill="#F8F8F8"
         id="path5"
         style="fill:#193343;fill-opacity:1;stroke-width:2.10938" />
      <path
         d="m 864.8359,-685.65517 c 8.19962,4.00567 10.84877,9.13628 13.84277,17.66602 0.80537,9.37472 0.69095,18.67932 0.52735,28.08105 -0.0109,2.54102 -0.0217,5.08204 -0.033,7.70005 -0.16909,18.73736 -0.16909,18.73736 -2.60376,21.17202 -15.86754,0.50374 -15.86754,0.50374 -21.09375,-2.10937 -2.08828,1.39219 -4.17656,2.78437 -6.32813,4.21875 -9.74021,1.62337 -18.52534,0.97575 -27.29003,-3.69141 -9.04395,-6.64453 -9.04395,-6.64453 -10.67872,-13.18359 -1.38277,-14.51917 -1.38277,-14.51917 3.55958,-22.93945 9.20832,-8.4617 17.55764,-9.21207 29.79492,-8.96485 3.67488,0.0572 3.67488,0.0572 7.42401,0.11539 1.85715,0.0489 3.71431,0.0979 5.62774,0.14828 -0.73378,-4.16679 -0.73378,-4.16679 -2.10937,-8.4375 -6.69424,-3.34711 -13.80259,-2.99358 -21.09375,-2.10937 -4.77677,3.09595 -4.77677,3.09595 -8.4375,6.32812 -7.91809,-2.63935 -8.9453,-5.41105 -12.65625,-12.65625 0,-1.39218 0,-2.78437 0,-4.21875 17.20812,-10.25164 32.3748,-15.4263 51.54785,-7.11914 z"
         fill="#F6F6F6"
         id="path6"
         style="fill:#193343;fill-opacity:1;stroke-width:2.10938" />
      <path
         d="m 733.1318,-714.3954 c 27.84375,0 55.6875,0 84.375,0 0,6.96094 0,13.92187 0,21.09375 -10.44141,0 -20.88281,0 -31.64063,0 0.0166,3.62568 0.0166,3.62568 0.0335,7.32461 0.0381,8.93532 0.0624,17.87061 0.0824,26.80596 0.0106,3.87339 0.025,7.74675 0.0433,11.62011 0.0255,5.55514 0.0375,11.1102 0.0469,16.66539 0.0109,1.74245 0.0218,3.48488 0.033,5.2801 4.1e-4,4.15412 -0.10812,8.30803 -0.23899,12.46008 -5.0703,5.0703 -13.96711,3.42689 -21.09375,4.21875 0,-27.84375 0,-55.6875 0,-84.375 -10.4414,0 -20.88281,0 -31.64062,0 0,-6.96094 0,-13.92188 0,-21.09375 z"
         fill="#FDFDFD"
         id="path7"
         style="fill:#193343;fill-opacity:1;stroke-width:2.10938" />
      <path
         d="m 937.74117,-689.0829 c 6.24693,2.24499 11.15183,4.98201 16.875,8.4375 -3.6914,12.12891 -3.6914,12.12891 -8.4375,16.875 -0.69609,-1.39219 -1.39218,-2.78437 -2.10937,-4.21875 -6.18681,-2.17633 -11.94355,-2.337 -18.45703,-2.24121 -2.52878,0.0285 -2.52878,0.0285 -5.10864,0.0576 -1.27255,0.0245 -2.5451,0.0489 -3.85621,0.0742 0,2.78438 0,5.56876 0,8.4375 1.52815,0.20672 3.05629,0.41332 4.63074,0.62622 12.47712,1.9298 21.6141,3.64812 31.22864,12.03003 4.90862,7.90371 4.81255,13.793 3.47717,22.79937 -1.77031,5.9828 -4.66359,9.77381 -9.82177,13.31543 -13.09279,5.77623 -25.92702,5.22396 -39.1388,0.27192 -7.21814,-3.09515 -9.06961,-4.30998 -13.5791,-11.07422 2.78437,-3.48046 5.56875,-6.96093 8.4375,-10.54687 2.04478,0.65258 4.08955,1.30518 6.19629,1.97754 9.06851,2.6202 18.17422,3.54238 27.55371,4.35058 0,-2.78437 0,-5.56875 0,-8.4375 -1.68041,-0.33444 -3.36083,-0.6689 -5.09216,-1.01349 -24.93245,-5.48998 -24.93245,-5.48998 -32.87659,-15.86151 -1.64007,-7.37424 -1.64921,-13.72083 0,-21.09375 11.31039,-14.67293 22.43776,-16.82686 40.07812,-14.76562 z"
         fill="#F3F3F3"
         id="path8"
         style="fill:#193343;fill-opacity:1;stroke-width:2.10938" />
      <path
         d="m 1203.5224,-689.0829 c 0,6.96094 0,13.92187 0,21.09375 -14.2383,4.21875 -14.2383,4.21875 -18.9844,4.21875 -1.8164,6.38653 -2.4939,12.32438 -2.7767,18.95141 -0.088,1.97138 -0.1768,3.94273 -0.2678,5.97383 -0.1244,3.06309 -0.1244,3.06309 -0.2514,6.18804 -0.091,2.07468 -0.1821,4.14937 -0.276,6.28693 -0.2233,5.11106 -0.4361,10.22258 -0.6468,15.33416 -6.9609,0 -13.9219,0 -21.0938,0 0,-25.05937 0,-50.11874 0,-75.9375 6.961,0 13.9219,0 21.0938,0 0.6961,2.08829 1.3922,4.17657 2.1094,6.32813 1.5227,-1.39219 3.0454,-2.78437 4.6142,-4.21875 5.9326,-4.21875 5.9326,-4.21875 16.4795,-4.21875 z"
         fill="#F4F4F4"
         id="path9"
         style="fill:#193343;fill-opacity:1;stroke-width:2.10938" />
      <path
         d="m 1216.1787,-686.97353 c 6.9609,0 13.9218,0 21.0937,0 0.052,10.47563 0.09,20.95118 0.1159,31.42691 0.011,3.56645 0.025,7.13289 0.043,10.69932 0.026,5.11536 0.038,10.23059 0.047,15.346 0.011,1.60401 0.022,3.20804 0.033,4.86065 4e-4,3.83259 -0.1083,7.6649 -0.239,11.49525 -2.1094,2.10937 -2.1094,2.10937 -5.9326,2.38952 -1.5227,-0.006 -3.0454,-0.0105 -4.6143,-0.0169 -1.5227,0.006 -3.0454,0.0105 -4.6142,0.0169 -3.8234,-0.28015 -3.8234,-0.28015 -5.9327,-2.38952 -0.1867,-5.47085 -0.2432,-10.88522 -0.206,-16.3559 0,-2.45357 0,-2.45357 0.01,-4.95668 0.012,-5.24451 0.038,-10.48886 0.065,-15.73332 0.011,-3.54721 0.02,-7.09442 0.029,-10.64163 0.023,-8.71361 0.06,-17.42706 0.103,-26.1406 z"
         fill="#F4F4F4"
         id="path10"
         style="fill:#193343;fill-opacity:1;stroke-width:2.10938" />
      <path
         d="m 1095.9443,-670.09853 c 6.7236,-0.65917 6.7236,-0.65917 14.7656,0 5.548,4.58313 9.436,8.32516 12.6563,14.76563 0.8714,9.80406 -0.4433,15.28116 -6.3282,23.20312 -6.817,3.4085 -13.7239,3.32124 -21.0937,2.10938 -6.3281,-4.21875 -6.3281,-4.21875 -10.5469,-10.54688 -1.3656,-8.16222 -0.5138,-15.33355 2.1094,-23.20312 l 4.2656,-3.25 c 1.5711,-1.27578 1.4547,-1.36406 4.1719,-3.07813 z"
         fill="#fdfdfd"
         id="path11"
         style="stroke-width:2.10938"
         sodipodi:nodetypes="ccccccccc" />
      <path
         d="m 733.1318,-714.3954 c 27.84375,0 55.6875,0 84.375,0 0,6.96094 0,13.92187 0,21.09375 -10.44141,0 -20.88281,0 -31.64063,0 0.0166,3.62568 0.0166,3.62568 0.0335,7.32461 0.0381,8.93532 0.0624,17.87061 0.0824,26.80596 0.0106,3.87339 0.025,7.74675 0.0433,11.62011 0.0255,5.55514 0.0375,11.1102 0.0469,16.66539 0.0109,1.74245 0.0218,3.48488 0.033,5.2801 4.1e-4,4.15412 -0.10812,8.30803 -0.23899,12.46008 -5.0703,5.0703 -13.96711,3.42689 -21.09375,4.21875 0,-27.84375 0,-55.6875 0,-84.375 -10.4414,0 -20.88281,0 -31.64062,0 0,-6.96094 0,-13.92188 0,-21.09375 z m 2.10937,4.21875 c 0,4.87266 0,9.74531 0,14.76562 10.44141,0 20.88282,0 31.64063,0 0,26.45157 0,52.90313 0,80.15625 4.87266,0 9.74531,0 14.76562,0 0,-27.14765 0,-54.29531 0,-82.26562 11.1375,0 22.275,0 33.75,0 0,-4.17656 0,-8.35312 0,-12.65625 -26.45156,0 -52.90312,0 -80.15625,0 z"
         fill="#E6E6E6"
         id="path12"
         style="fill:#193343;fill-opacity:1;stroke-width:2.10938" />
      <path
         d="m 1007.3505,-765.0204 c -1.9064,5.10931 -3.8438,10.20303 -5.8007,15.29297 -0.533,1.4384 -1.0659,2.87683 -1.61502,4.35883 -3.3191,8.54668 -6.49712,14.36942 -13.67798,20.42632 -4.78616,-5.64082 -9.23223,-11.41439 -13.18359,-17.66601 -0.70697,-1.10396 -1.41394,-2.20793 -2.14234,-3.34534 -2.28922,-6.35625 -1.77249,-12.38005 -1.54907,-19.06677 5.53639,-0.40987 11.0731,-0.8031 16.61133,-1.18652 2.36155,-0.1774 2.36155,-0.1774 4.77081,-0.35843 11.88996,-0.80337 11.88996,-0.80337 16.58656,1.54495 z"
         fill="#D78835"
         id="path13"
         style="fill:#f67b1b;fill-opacity:1;stroke-width:2.10938" />
      <path
         d="m 988.36617,-718.61415 c 2.08829,0 4.17657,0 6.32813,0 0.69609,18.79453 1.39219,37.58906 2.10937,56.95312 3.30643,-4.17656 6.61293,-8.35312 10.01953,-12.65625 6.3002,-7.39017 10.7043,-12.07556 20.3604,-14.33716 6.2252,0.0888 12.0222,0.52863 18.1357,1.68091 -3.4805,3.48047 -6.9609,6.96094 -10.5469,10.54688 -0.6961,-1.39219 -1.3922,-2.78437 -2.1094,-4.21875 -5.7861,-1.4168 -5.7861,-1.4168 -12.6562,0 -3.7165,3.91207 -6.5798,8.0868 -9.6075,12.54914 -3.8552,5.4702 -7.9166,9.23317 -13.59563,12.76336 -2.08828,-0.69609 -4.17656,-1.39219 -6.32812,-2.10938 -0.69609,-20.18671 -1.39219,-40.37343 -2.10938,-61.17187 z"
         fill="#EAEAEA"
         id="path14"
         style="fill:#193343;fill-opacity:1;stroke-width:2.10938" />
      <path
         d="m 1228.9668,-718.35048 c 6.1962,1.8457 6.1962,1.8457 10.415,8.17383 0.791,5.27344 0.791,5.27344 0,10.54687 -4.4662,4.79702 -7.3901,6.1493 -13.8428,7.25098 -5.1416,-0.92285 -5.1416,-0.92285 -9.0967,-4.48242 -2.373,-4.87793 -2.373,-4.87793 -2.1093,-10.2832 3.1194,-8.68983 5.0414,-11.59758 14.6338,-11.20606 z"
         fill="#F1F1F1"
         id="path15"
         style="fill:#193343;fill-opacity:1;stroke-width:2.10938" />
      <path
         d="m 969.3818,-765.0204 c 4.92106,-0.0894 9.84451,-0.0863 14.76562,0 2.10938,2.10937 2.10938,2.10937 2.31537,10.15961 -0.0141,3.33716 -0.0393,6.67428 -0.0742,10.01129 -0.01,1.70081 -0.019,3.40162 -0.0288,5.15396 -0.0249,4.2147 -0.0628,8.42932 -0.103,12.64389 -9.92663,-9.57211 -16.50946,-17.44582 -17.40234,-31.50879 0.17402,-2.1318 0.34804,-4.26357 0.52734,-6.45996 z"
         fill="#F1CC7A"
         id="path16"
         style="fill:#fcc055;fill-opacity:1;stroke-width:2.10938" />
      <path
         d="m 857.58492,-642.67665 c 0.52735,4.87793 0.52735,4.87793 0,10.54687 -4.89375,5.45841 -7.69489,6.26873 -15.02929,6.85547 -6.06446,-0.52734 -6.06446,-0.52734 -10.28321,-2.63672 0,-4.17656 0,-8.35312 0,-12.65625 8.42824,-5.96999 15.66712,-3.71692 25.3125,-2.10937 z"
         fill="#fcfcfc"
         id="path17"
         style="stroke-width:2.10938" />
      <path
         d="m 872.35055,-676.42665 c 1.39219,0.69609 2.78437,1.39219 4.21875,2.10937 2.2627,6.78812 2.38199,11.73433 2.38953,18.86902 0.004,3.66672 0.004,3.66672 0.008,7.40753 -0.008,2.55325 -0.0163,5.1065 -0.0247,7.73713 0.0122,3.85435 0.0122,3.85435 0.0247,7.78656 -0.003,2.43905 -0.005,4.87808 -0.008,7.39104 -0.002,2.24634 -0.005,4.49268 -0.007,6.80706 -0.27316,5.17354 -0.27316,5.17354 -2.38253,7.28291 -15.86754,0.50374 -15.86754,0.50374 -21.09375,-2.10937 -2.08828,1.39219 -4.17656,2.78437 -6.32813,4.21875 -9.31903,1.34376 -16.9605,0.99128 -25.44433,-3.16406 -1.34868,-1.04414 -2.69736,-2.08828 -4.08692,-3.16407 1.39219,-0.69609 2.78438,-1.39218 4.21875,-2.10937 1.39219,0.69609 2.78438,1.39219 4.21875,2.10937 10.34472,1.13495 19.86265,1.79169 28.74024,-4.21875 1.65322,-1.39218 3.30644,-2.78437 5.00976,-4.21875 0,2.78438 0,5.56876 0,8.4375 4.87266,0 9.74532,0 14.76563,0 -0.29461,-7.8228 -0.60714,-15.64481 -0.92285,-23.46679 -0.0829,-2.20793 -0.16587,-4.41585 -0.25131,-6.69069 -0.43173,-10.49426 -0.91995,-20.69469 -3.04459,-31.01439 z"
         fill="#E1E1E1"
         id="path18"
         style="fill:#193343;fill-opacity:1;stroke-width:2.10938" />
      <path
         d="m 986.2568,-762.91103 c 0,8.35313 0,16.70626 0,25.3125 -2.08828,0 -4.17656,0 -6.32813,0 -0.69609,-4.87265 -1.39218,-9.74531 -2.10937,-14.76562 -1.39219,0 -2.78437,0 -4.21875,0 1.71387,-4.08691 1.71387,-4.08691 4.21875,-8.4375 6.32812,-2.10938 6.32812,-2.10938 8.4375,-2.10938 z"
         fill="#fcc055"
         id="path20"
         style="stroke-width:2.10938" />
      <path
         d="m 995.88082,-760.93349 c 2.5451,0.0652 2.5451,0.0652 5.14158,0.13184 -1.17551,7.05318 -2.8513,12.72613 -6.3281,18.98437 -1.39219,0 -2.78437,0 -4.21875,0 -1.85394,-12.97759 -1.85394,-12.97759 -2.10938,-16.875 2.10938,-2.10937 2.10938,-2.10937 7.51465,-2.24121 z"
         fill="#EA7E27"
         id="path21"
         style="fill:#f67b1b;fill-opacity:1;stroke-width:2.10938" />
      <path
         d="m 1025.9559,-687.38551 c 2.3004,0.0489 4.6007,0.0979 6.9708,0.14829 2.3113,0.0382 4.6225,0.0761 7.0038,0.11538 1.7783,0.0489 3.5566,0.0979 5.3888,0.14829 -3.4805,3.48047 -6.9609,6.96094 -10.5469,10.54688 -0.6961,-1.39219 -1.3922,-2.78438 -2.1094,-4.21875 -9.3374,-0.64326 -9.3374,-0.64326 -17.666,3.16406 -1.1311,1.04414 -2.2623,2.08828 -3.4277,3.16406 5.8217,-12.47509 5.8217,-12.47509 14.3866,-13.06823 z"
         fill="#E2E2E2"
         id="path22"
         style="fill:#193343;fill-opacity:1;stroke-width:2.10938" />
      <path
         d="m 1094.1687,-883.36701 c 0,8.58651 -7.888,20.0722 -13.4103,26.34569 -3.7985,3.06518 -8.1759,4.99125 -16.3497,5.9141 l -29.8798,-0.135 c 6.3281,-4.21875 33.9935,-4.48139 41.3763,-8.43647 6.1511,-3.45916 14.5384,-17.55289 18.2635,-23.68841 z"
         fill="#D7E2E9"
         id="path23"
         style="fill:#193343;fill-opacity:1;stroke-width:2.10938"
         sodipodi:nodetypes="cccccc" />
      <path
         d="m 1038.9912,-623.69228 c 2.9017,2.72036 5.7114,5.5411 8.4375,8.4375 0,1.39219 0,2.78438 0,4.21875 -6.961,0 -13.9219,0 -21.0938,0 -0.6961,-1.39218 -1.3922,-2.78437 -2.1094,-4.21875 5.5688,-0.69609 11.1375,-1.39218 16.875,-2.10937 -0.696,-2.08828 -1.3921,-4.17656 -2.1093,-6.32813 z"
         fill="#E2E2E2"
         id="path24"
         style="fill:#193343;fill-opacity:1;stroke-width:2.10938" />
      <path
         d="m 973.60055,-752.36415 c 1.39219,0 2.78437,0 4.21875,0 0.69609,4.87266 1.39219,9.74531 2.10937,14.76562 2.08829,0 4.17657,0 6.32813,0 0,3.48047 0,6.96094 0,10.54688 -9.19478,-7.35583 -10.43196,-14.19105 -12.65625,-25.3125 z"
         fill="#F0C666"
         id="path25"
         style="fill:#fcc055;fill-opacity:1;stroke-width:2.10938" />
      <path
         d="m 998.91305,-752.36415 c 0.69609,1.39219 1.39215,2.78437 2.10935,4.21875 -1.95279,4.9521 -1.95279,4.9521 -4.8779,10.67871 -1.42346,2.84283 -1.42346,2.84283 -2.87568,5.74311 -2.79327,4.67193 -2.79327,4.67193 -7.01202,6.7813 -0.52734,-4.74609 -0.52734,-4.74609 0,-10.54687 3.95508,-4.35059 3.95508,-4.35059 8.4375,-8.4375 2.60533,-4.49949 2.60533,-4.49949 4.21875,-8.4375 z"
         fill="#DC8740"
         id="path26"
         style="fill:#f67b1b;fill-opacity:1;stroke-width:2.10938" />
      <path
         d="m 988.36617,-758.69228 c 2.78438,0.6961 5.56876,1.39219 8.4375,2.10938 -0.69609,3.48047 -1.39218,6.96094 -2.10937,10.54687 -1.39219,0 -2.78437,0 -4.21875,0 -0.69609,-4.17656 -1.39219,-8.35312 -2.10938,-12.65625 z"
         fill="#f67b1b"
         id="path27"
         style="stroke-width:2.10938" />
    </g>
  </g>
</svg>
